<svg xmlns="http://www.w3.org/2000/svg" width="388.0" height="196.0" viewBox="0 0 388.0 196.0">
  <!-- isometric-ops grid: projection=dimetric21 tileW=32 extent=12 axis-slope=0.5 -->
  <g fill="none" stroke="#334155" stroke-width="1" stroke-linecap="round">
  <line x1="194.0" y1="2.0" x2="2.0" y2="98.0"/>
  <line x1="210.0" y1="10.0" x2="18.0" y2="106.0"/>
  <line x1="226.0" y1="18.0" x2="34.0" y2="114.0"/>
  <line x1="242.0" y1="26.0" x2="50.0" y2="122.0"/>
  <line x1="258.0" y1="34.0" x2="66.0" y2="130.0"/>
  <line x1="274.0" y1="42.0" x2="82.0" y2="138.0"/>
  <line x1="290.0" y1="50.0" x2="98.0" y2="146.0"/>
  <line x1="306.0" y1="58.0" x2="114.0" y2="154.0"/>
  <line x1="322.0" y1="66.0" x2="130.0" y2="162.0"/>
  <line x1="338.0" y1="74.0" x2="146.0" y2="170.0"/>
  <line x1="354.0" y1="82.0" x2="162.0" y2="178.0"/>
  <line x1="370.0" y1="90.0" x2="178.0" y2="186.0"/>
  <line x1="386.0" y1="98.0" x2="194.0" y2="194.0"/>
  <line x1="194.0" y1="2.0" x2="386.0" y2="98.0"/>
  <line x1="178.0" y1="10.0" x2="370.0" y2="106.0"/>
  <line x1="162.0" y1="18.0" x2="354.0" y2="114.0"/>
  <line x1="146.0" y1="26.0" x2="338.0" y2="122.0"/>
  <line x1="130.0" y1="34.0" x2="322.0" y2="130.0"/>
  <line x1="114.0" y1="42.0" x2="306.0" y2="138.0"/>
  <line x1="98.0" y1="50.0" x2="290.0" y2="146.0"/>
  <line x1="82.0" y1="58.0" x2="274.0" y2="154.0"/>
  <line x1="66.0" y1="66.0" x2="258.0" y2="162.0"/>
  <line x1="50.0" y1="74.0" x2="242.0" y2="170.0"/>
  <line x1="34.0" y1="82.0" x2="226.0" y2="178.0"/>
  <line x1="18.0" y1="90.0" x2="210.0" y2="186.0"/>
  <line x1="2.0" y1="98.0" x2="194.0" y2="194.0"/>
  </g>
</svg>
