<svg xmlns="http://www.w3.org/2000/svg" width="772.0" height="388.0" viewBox="0 0 772.0 388.0">
  <!-- isometric-ops grid: projection=dimetric21 tileW=64 extent=12 axis-slope=0.5 -->
  <g fill="none" stroke="#334155" stroke-width="1" stroke-linecap="round">
  <line x1="386.0" y1="2.0" x2="2.0" y2="194.0"/>
  <line x1="418.0" y1="18.0" x2="34.0" y2="210.0"/>
  <line x1="450.0" y1="34.0" x2="66.0" y2="226.0"/>
  <line x1="482.0" y1="50.0" x2="98.0" y2="242.0"/>
  <line x1="514.0" y1="66.0" x2="130.0" y2="258.0"/>
  <line x1="546.0" y1="82.0" x2="162.0" y2="274.0"/>
  <line x1="578.0" y1="98.0" x2="194.0" y2="290.0"/>
  <line x1="610.0" y1="114.0" x2="226.0" y2="306.0"/>
  <line x1="642.0" y1="130.0" x2="258.0" y2="322.0"/>
  <line x1="674.0" y1="146.0" x2="290.0" y2="338.0"/>
  <line x1="706.0" y1="162.0" x2="322.0" y2="354.0"/>
  <line x1="738.0" y1="178.0" x2="354.0" y2="370.0"/>
  <line x1="770.0" y1="194.0" x2="386.0" y2="386.0"/>
  <line x1="386.0" y1="2.0" x2="770.0" y2="194.0"/>
  <line x1="354.0" y1="18.0" x2="738.0" y2="210.0"/>
  <line x1="322.0" y1="34.0" x2="706.0" y2="226.0"/>
  <line x1="290.0" y1="50.0" x2="674.0" y2="242.0"/>
  <line x1="258.0" y1="66.0" x2="642.0" y2="258.0"/>
  <line x1="226.0" y1="82.0" x2="610.0" y2="274.0"/>
  <line x1="194.0" y1="98.0" x2="578.0" y2="290.0"/>
  <line x1="162.0" y1="114.0" x2="546.0" y2="306.0"/>
  <line x1="130.0" y1="130.0" x2="514.0" y2="322.0"/>
  <line x1="98.0" y1="146.0" x2="482.0" y2="338.0"/>
  <line x1="66.0" y1="162.0" x2="450.0" y2="354.0"/>
  <line x1="34.0" y1="178.0" x2="418.0" y2="370.0"/>
  <line x1="2.0" y1="194.0" x2="386.0" y2="386.0"/>
  </g>
</svg>
