<svg xmlns="http://www.w3.org/2000/svg" width="1540.0" height="772.0" viewBox="0 0 1540.0 772.0">
  <!-- isometric-ops grid: projection=dimetric21 tileW=128 extent=12 axis-slope=0.5 -->
  <g fill="none" stroke="#334155" stroke-width="1" stroke-linecap="round">
  <line x1="770.0" y1="2.0" x2="2.0" y2="386.0"/>
  <line x1="834.0" y1="34.0" x2="66.0" y2="418.0"/>
  <line x1="898.0" y1="66.0" x2="130.0" y2="450.0"/>
  <line x1="962.0" y1="98.0" x2="194.0" y2="482.0"/>
  <line x1="1026.0" y1="130.0" x2="258.0" y2="514.0"/>
  <line x1="1090.0" y1="162.0" x2="322.0" y2="546.0"/>
  <line x1="1154.0" y1="194.0" x2="386.0" y2="578.0"/>
  <line x1="1218.0" y1="226.0" x2="450.0" y2="610.0"/>
  <line x1="1282.0" y1="258.0" x2="514.0" y2="642.0"/>
  <line x1="1346.0" y1="290.0" x2="578.0" y2="674.0"/>
  <line x1="1410.0" y1="322.0" x2="642.0" y2="706.0"/>
  <line x1="1474.0" y1="354.0" x2="706.0" y2="738.0"/>
  <line x1="1538.0" y1="386.0" x2="770.0" y2="770.0"/>
  <line x1="770.0" y1="2.0" x2="1538.0" y2="386.0"/>
  <line x1="706.0" y1="34.0" x2="1474.0" y2="418.0"/>
  <line x1="642.0" y1="66.0" x2="1410.0" y2="450.0"/>
  <line x1="578.0" y1="98.0" x2="1346.0" y2="482.0"/>
  <line x1="514.0" y1="130.0" x2="1282.0" y2="514.0"/>
  <line x1="450.0" y1="162.0" x2="1218.0" y2="546.0"/>
  <line x1="386.0" y1="194.0" x2="1154.0" y2="578.0"/>
  <line x1="322.0" y1="226.0" x2="1090.0" y2="610.0"/>
  <line x1="258.0" y1="258.0" x2="1026.0" y2="642.0"/>
  <line x1="194.0" y1="290.0" x2="962.0" y2="674.0"/>
  <line x1="130.0" y1="322.0" x2="898.0" y2="706.0"/>
  <line x1="66.0" y1="354.0" x2="834.0" y2="738.0"/>
  <line x1="2.0" y1="386.0" x2="770.0" y2="770.0"/>
  </g>
</svg>
