<svg xmlns="http://www.w3.org/2000/svg" width="1540.0" height="890.81" viewBox="0 0 1540.0 890.81">
  <!-- isometric-ops grid: projection=true tileW=128 extent=12 axis-slope=0.57735 -->
  <g fill="none" stroke="#334155" stroke-width="1" stroke-linecap="round">
  <line x1="770.0" y1="2.0" x2="2.0" y2="445.405"/>
  <line x1="834.0" y1="38.95" x2="66.0" y2="482.355"/>
  <line x1="898.0" y1="75.901" x2="130.0" y2="519.306"/>
  <line x1="962.0" y1="112.851" x2="194.0" y2="556.256"/>
  <line x1="1026.0" y1="149.802" x2="258.0" y2="593.207"/>
  <line x1="1090.0" y1="186.752" x2="322.0" y2="630.157"/>
  <line x1="1154.0" y1="223.703" x2="386.0" y2="667.108"/>
  <line x1="1218.0" y1="260.653" x2="450.0" y2="704.058"/>
  <line x1="1282.0" y1="297.603" x2="514.0" y2="741.008"/>
  <line x1="1346.0" y1="334.554" x2="578.0" y2="777.959"/>
  <line x1="1410.0" y1="371.504" x2="642.0" y2="814.909"/>
  <line x1="1474.0" y1="408.455" x2="706.0" y2="851.86"/>
  <line x1="1538.0" y1="445.405" x2="770.0" y2="888.81"/>
  <line x1="770.0" y1="2.0" x2="1538.0" y2="445.405"/>
  <line x1="706.0" y1="38.95" x2="1474.0" y2="482.355"/>
  <line x1="642.0" y1="75.901" x2="1410.0" y2="519.306"/>
  <line x1="578.0" y1="112.851" x2="1346.0" y2="556.256"/>
  <line x1="514.0" y1="149.802" x2="1282.0" y2="593.207"/>
  <line x1="450.0" y1="186.752" x2="1218.0" y2="630.157"/>
  <line x1="386.0" y1="223.703" x2="1154.0" y2="667.108"/>
  <line x1="322.0" y1="260.653" x2="1090.0" y2="704.058"/>
  <line x1="258.0" y1="297.603" x2="1026.0" y2="741.008"/>
  <line x1="194.0" y1="334.554" x2="962.0" y2="777.959"/>
  <line x1="130.0" y1="371.504" x2="898.0" y2="814.909"/>
  <line x1="66.0" y1="408.455" x2="834.0" y2="851.86"/>
  <line x1="2.0" y1="445.405" x2="770.0" y2="888.81"/>
  </g>
</svg>
