<svg xmlns="http://www.w3.org/2000/svg" width="388.0" height="225.703" viewBox="0 0 388.0 225.703">
  <!-- isometric-ops grid: projection=true tileW=32 extent=12 axis-slope=0.57735 -->
  <g fill="none" stroke="#334155" stroke-width="1" stroke-linecap="round">
  <line x1="194.0" y1="2.0" x2="2.0" y2="112.851"/>
  <line x1="210.0" y1="11.238" x2="18.0" y2="122.089"/>
  <line x1="226.0" y1="20.475" x2="34.0" y2="131.326"/>
  <line x1="242.0" y1="29.713" x2="50.0" y2="140.564"/>
  <line x1="258.0" y1="38.95" x2="66.0" y2="149.802"/>
  <line x1="274.0" y1="48.188" x2="82.0" y2="159.039"/>
  <line x1="290.0" y1="57.426" x2="98.0" y2="168.277"/>
  <line x1="306.0" y1="66.663" x2="114.0" y2="177.514"/>
  <line x1="322.0" y1="75.901" x2="130.0" y2="186.752"/>
  <line x1="338.0" y1="85.138" x2="146.0" y2="195.99"/>
  <line x1="354.0" y1="94.376" x2="162.0" y2="205.227"/>
  <line x1="370.0" y1="103.614" x2="178.0" y2="214.465"/>
  <line x1="386.0" y1="112.851" x2="194.0" y2="223.703"/>
  <line x1="194.0" y1="2.0" x2="386.0" y2="112.851"/>
  <line x1="178.0" y1="11.238" x2="370.0" y2="122.089"/>
  <line x1="162.0" y1="20.475" x2="354.0" y2="131.326"/>
  <line x1="146.0" y1="29.713" x2="338.0" y2="140.564"/>
  <line x1="130.0" y1="38.95" x2="322.0" y2="149.802"/>
  <line x1="114.0" y1="48.188" x2="306.0" y2="159.039"/>
  <line x1="98.0" y1="57.426" x2="290.0" y2="168.277"/>
  <line x1="82.0" y1="66.663" x2="274.0" y2="177.514"/>
  <line x1="66.0" y1="75.901" x2="258.0" y2="186.752"/>
  <line x1="50.0" y1="85.138" x2="242.0" y2="195.99"/>
  <line x1="34.0" y1="94.376" x2="226.0" y2="205.227"/>
  <line x1="18.0" y1="103.614" x2="210.0" y2="214.465"/>
  <line x1="2.0" y1="112.851" x2="194.0" y2="223.703"/>
  </g>
</svg>
